<svg width="1000" height="1000" viewBox="0 0 1000 1000" fill="none" xmlns="http://www.w3.org/2000/svg">
<rect width="1000" height="1000" fill="white"/>
<path d="M972.5 410.5H886.5L870 522H958.5L962 500H901.5L904.5 477.5H933.5L962 455H907.5L910 433H970L972.5 410.5Z" fill="black"/>
<path d="M676.5 412H741L726.5 433C719.833 432.833 703.7 432.6 692.5 433C681.3 433.4 675.167 442.167 673.5 446.5C672.5 456.167 670.3 477.7 669.5 486.5C668.7 495.3 676.5 499.833 680.5 501H722.5L735.5 522.5C721.667 522.833 688.3 523.3 665.5 522.5C642.7 521.7 639.333 506.167 640.5 498.5C641.833 485.333 645.2 454.5 648 436.5C650.8 418.5 668.167 412.667 676.5 412Z" fill="black"/>
<path d="M605 471.5L583 500.5L589.5 520.5H618.5L605 471.5Z" fill="black"/>
<path d="M235.5 412L220.5 522H249.5L260 448.5L304 522H333.5L347.5 412H318L309.5 484L265.5 412H235.5Z" fill="black"/>
<path d="M378 412L363 522H392L402.5 448.5L446.5 522H476L490 412H460.5L452 484L408 412H378Z" fill="black"/>
<path d="M559 411.5L495 522.5H525L581.5 493.5L612 453.5L547.5 483.5L569 447L574 467L600.5 453.5L589.5 411.5H559Z" fill="black"/>
<path d="M172 448.5L162 522H191L203.5 427L172 448.5Z" fill="black"/>
<path d="M205.5 412H177.5L173.5 441.5L205.5 420V412Z" fill="black"/>
<path d="M46.5 412L31 524H59.5L63.5 491C61 490.5 61.1 489.8 81.5 491C107 492.5 120.5 486 128.5 478.5C136.5 471 144.5 462 145 440C145.4 422.4 131.5 414 124.5 412H46.5Z" fill="black" stroke="black"/>
<path d="M72 434L67 468H104C110 468 115 460.5 116.5 450C117.7 441.6 114 435.833 112 434H72Z" fill="white"/>
<path d="M776.5 410.5L761 522H844L846.5 500.5H793.5L806 410.5H776.5Z" fill="black"/>
</svg>
