<svg width="1001" height="1000" viewBox="0 0 1001 1000" fill="none" xmlns="http://www.w3.org/2000/svg">
<rect width="1000" height="1000" fill="white"/>
<path d="M490 81L10 907V921H118L500 279C560.667 367 679.6 556.6 670 611C660.4 665.4 602 692.333 574 699L514 611L330 921H1000L868 687C866.667 681 860.8 677 848 709C832 749 798 773 764 799C736.8 819.8 658 837 622 843H442L490 755C538 756.333 643.6 758.2 682 755C730 751 764 721 798 669C825.2 627.4 809.333 586.333 798 571C706.667 411.667 522 90.6 514 81C506 71.4 494.667 77 490 81Z" fill="black" stroke="black"/>
<path d="M494 441C432.667 535 290 763 210 923H225C245 923 256 915 259 911L494 507C494 521.333 495.6 551.4 502 557C510 564 507 571 518 557C526.8 545.8 535 547.667 538 550L602 593C574 547 515.8 452.2 507 441C498.2 429.8 494.667 436.333 494 441Z" fill="black" stroke="black"/>
</svg>
